<svg xmlns="http://www.w3.org/2000/svg" viewBox="0 0 512 512" role="img" aria-label="ここシェア">
  <defs>
    <linearGradient id="bg" x1="0" y1="0" x2="1" y2="1">
      <stop offset="0%" stop-color="#0f8d81"/>
      <stop offset="100%" stop-color="#125c73"/>
    </linearGradient>
    <linearGradient id="pin" x1="0" y1="0" x2="1" y2="1">
      <stop offset="0%" stop-color="#ffffff"/>
      <stop offset="100%" stop-color="#dff8f2"/>
    </linearGradient>
    <linearGradient id="heart" x1="0" y1="0" x2="1" y2="1">
      <stop offset="0%" stop-color="#ff9b66"/>
      <stop offset="100%" stop-color="#e4565d"/>
    </linearGradient>
  </defs>
  <rect width="512" height="512" rx="124" fill="url(#bg)"/>
  <circle cx="256" cy="256" r="148" fill="#ffffff" opacity="0.06"/>
  <g transform="translate(0 12) scale(0.8)">
    <path d="M256 92c-82 0-148 66-148 148 0 100 112 188 136 206 7 6 17 6 24 0 24-18 136-106 136-206 0-82-66-148-148-148Z" fill="url(#pin)"/>
    <circle cx="256" cy="232" r="60" fill="#f7fffd"/>
    <path d="M256 280c42-24 69-55 69-84 0-25-17-42-41-42-12 0-23 6-28 14-6-8-16-14-29-14-24 0-41 17-41 42 0 29 28 60 70 84Z" fill="url(#heart)"/>
    <path d="M316 336c-17 13-36 24-49 33-6 4-16 4-22 0-13-9-32-20-49-33 10-10 24-16 40-16h40c16 0 30 6 40 16Z" fill="#ffd86b"/>
  </g>
</svg>
